<?xml version="1.0" encoding="utf-8"?>
<!-- Generator: Adobe Illustrator 16.0.0, SVG Export Plug-In . SVG Version: 6.00 Build 0)  -->
<!DOCTYPE svg PUBLIC "-//W3C//DTD SVG 1.1//EN" "http://www.w3.org/Graphics/SVG/1.1/DTD/svg11.dtd">
<svg version="1.1" id="Calque_1" xmlns="http://www.w3.org/2000/svg" xmlns:xlink="http://www.w3.org/1999/xlink" x="0px" y="0px"
	 width="342px" height="257px" viewBox="0 0 171 128.5" enable-background="new 0 0 171 128.5" xml:space="preserve">
<path fill="#8AB295" d="M62.254,34.58c0,1.066-0.9,1.938-2,1.938h-9.56c-1.1,0-2-0.871-2-1.938c0-1.064,0.9-1.938,2-1.938h9.56
	C61.354,32.643,62.254,33.516,62.254,34.58z"/>
<path fill="#8AB295" d="M47.552,34.621c0,1.066-0.9,1.938-2,1.938h-1.551c-1.1,0-2-0.871-2-1.938c0-1.064,0.9-1.938,2-1.938h1.551
	C46.652,32.684,47.552,33.557,47.552,34.621z"/>
<path fill="#8AB295" d="M67.949,27.08c0,1.066-0.9,1.938-2,1.938h-10.61c-1.1,0-2-0.871-2-1.938c0-1.064,0.9-1.938,2-1.938h10.61
	C67.049,25.143,67.949,26.016,67.949,27.08z"/>
<path fill="#8AB295" d="M52.198,27.121c0,1.066-0.9,1.938-2,1.938h-1.552c-1.1,0-2-0.871-2-1.938c0-1.064,0.9-1.938,2-1.938h1.552
	C51.298,25.184,52.198,26.057,52.198,27.121z"/>
<path fill="#8AB295" d="M68.578,19.955c0,1.066-0.9,1.938-2,1.938H52.4c-1.1,0-2-0.871-2-1.938c0-1.064,0.9-1.938,2-1.938h14.178
	C67.678,18.018,68.578,18.891,68.578,19.955z"/>
<path fill="#8AB295" d="M48.916,19.996c0,1.066-0.9,1.938-2,1.938h-3.212c-1.1,0-2-0.871-2-1.938c0-1.064,0.9-1.938,2-1.938h3.212
	C48.016,18.059,48.916,18.932,48.916,19.996z"/>
<g>
	<path fill="#FFFFFF" d="M99.462,16.887c0.851,2.551,4.342-2.295,6.857-2.295c6.229,0,11.299,5.109,11.299,11.391
		c0,0.203-0.009,0.422-0.023,0.65c5.291,2.387,8.861,7.918,8.861,14.008c0,8.535-7.033,16.021-15.051,16.021H74.588
		c-7.987,0-14.947-7.422-14.947-15.883c0-5.814,3.313-11.186,8.241-13.66c-0.188-1.01-0.281-2.031-0.281-3.057
		C67.601,24.063,76.125-7.375,99.462,16.887z"/>
	<path fill="#8C8C8C" d="M111.405,58.662H74.588c-9.028,0-16.947-8.355-16.947-17.883c0-6.029,3.123-11.658,8.065-14.73
		c-0.07-0.66-0.105-1.324-0.105-1.986c0-10.33,8.408-18.734,18.742-18.734c6.455,0,12.459,3.371,15.852,8.746
		c1.882-0.965,3.993-1.482,6.125-1.482c7.141,0,12.984,5.697,13.286,12.813c5.417,2.986,8.851,8.828,8.851,15.236
		C128.456,50.24,120.488,58.662,111.405,58.662z M84.343,9.328c-8.129,0-14.742,6.609-14.742,14.734c0,0.9,0.083,1.807,0.248,2.691
		l0.274,1.479l-1.343,0.674c-4.336,2.178-7.139,6.838-7.139,11.873c0,7.396,6.05,13.883,12.947,13.883h36.817
		c6.952,0,13.051-6.553,13.051-14.021c0-5.215-3.088-10.111-7.684-12.184l-1.263-0.57l0.089-1.381
		c0.012-0.184,0.02-0.359,0.02-0.523c0-5.178-4.172-9.391-9.299-9.391c-2.035,0-4.042,0.672-5.649,1.889l-1.963,1.488l-1.053-2.227
		C95.236,12.631,90.011,9.328,84.343,9.328z"/>
</g>
<g>
	<circle fill="#FFFFFF" cx="107.196" cy="53.703" r="9.767"/>
	<path fill="#8C8C8C" d="M107.196,65.469c-6.488,0-11.767-5.277-11.767-11.766s5.278-11.768,11.767-11.768
		s11.767,5.279,11.767,11.768S113.685,65.469,107.196,65.469z M107.196,45.936c-4.282,0-7.767,3.484-7.767,7.768
		s3.484,7.766,7.767,7.766s7.767-3.482,7.767-7.766S111.479,45.936,107.196,45.936z"/>
</g>
<g>
	<circle fill="#FFFFFF" cx="78.521" cy="53.703" r="9.767"/>
	<path fill="#8C8C8C" d="M78.521,65.469c-6.488,0-11.767-5.277-11.767-11.766s5.278-11.768,11.767-11.768
		s11.767,5.279,11.767,11.768S85.01,65.469,78.521,65.469z M78.521,45.936c-4.283,0-7.767,3.484-7.767,7.768
		s3.484,7.766,7.767,7.766s7.767-3.482,7.767-7.766S82.804,45.936,78.521,45.936z"/>
</g>
<g>
	<g>
		<path fill="#A3A3A3" d="M20.735,75.201V96.17h-3.419l-0.24-2.041c-1.14,1.771-2.97,2.371-4.77,2.371
			c-4.351,0-7.62-2.881-7.62-7.74c0-5.1,3.21-7.74,7.529-7.74c1.561,0,3.99,0.84,4.86,2.371v-8.189H20.735z M8.347,88.76
			c0,2.58,1.859,4.35,4.199,4.35c2.311,0,4.291-1.68,4.291-4.35c0-2.58-1.98-4.32-4.291-4.32C10.206,84.439,8.347,86.09,8.347,88.76
			z"/>
	</g>
	<g>
		<path fill="#A3A3A3" d="M27.307,81.381l0.271,1.709c1.139-1.83,2.67-2.1,4.17-2.1c1.529,0,2.999,0.6,3.809,1.41l-1.649,3.18
			c-0.75-0.631-1.44-0.961-2.64-0.961c-1.92,0-3.689,1.021-3.689,3.75v7.801h-3.66V81.381H27.307z"/>
	</g>
	<g>
		<path fill="#A3A3A3" d="M40.927,77.211c0,2.85-4.32,2.85-4.32,0C36.606,74.359,40.927,74.359,40.927,77.211z M36.937,81.32v14.85
			h3.66V81.32H36.937z"/>
	</g>
	<g>
		<path fill="#A3A3A3" d="M59.226,81.35l-6.3,14.879h-3.96l-6.33-14.879h3.99l2.04,4.891l2.28,6.24l2.25-6.18l2.039-4.951H59.226z"
			/>
	</g>
	<g>
		<path fill="#A3A3A3" d="M64.985,77.211c0,2.85-4.319,2.85-4.319,0C60.666,74.359,64.985,74.359,64.985,77.211z M60.995,81.32
			v14.85h3.66V81.32H60.995z"/>
	</g>
	<g>
		<path fill="#A3A3A3" d="M78.845,96.17v-7.74c0-2.25-1.229-3.959-3.569-3.959c-2.25,0-3.78,1.889-3.78,4.139v7.561h-3.629V81.35
			h3.27l0.24,2.01c1.5-1.469,3-2.219,4.859-2.219c3.48,0,6.27,2.609,6.27,7.26v7.77H78.845z"/>
	</g>
	<g>
		<g>
			<path fill="#8C8C8C" d="M104.435,93.529c-2.16,2.131-4.949,3.121-7.979,3.121c-7.8,0-11.1-5.371-11.13-10.83
				c-0.029-5.49,3.54-11.07,11.13-11.07c2.851,0,5.55,1.08,7.71,3.211l-2.641,2.549c-1.379-1.35-3.239-1.98-5.069-1.98
				c-5.069,0-7.26,3.781-7.229,7.291c0.029,3.479,2.039,7.109,7.229,7.109c1.83,0,3.899-0.75,5.28-2.131L104.435,93.529z"/>
		</g>
	</g>
	<g>
		<g>
			<path fill="#8C8C8C" d="M109.715,75.201V96.17h-3.63V75.201H109.715z"/>
		</g>
	</g>
	<path fill="#8C8C8C" d="M127.624,88.789c0,4.26-2.91,7.711-7.709,7.711c-4.801,0-7.68-3.451-7.68-7.711
		c0-3.623,2.157-6.697,5.736-7.504c0.076-0.018,0.154-0.033,0.232-0.049c0.531-0.104,1.092-0.156,1.681-0.156
		C124.595,81.08,127.624,84.561,127.624,88.789z M115.896,88.789c0,1.592,0.674,3.107,2.014,3.859
		c0.555,0.311,1.223,0.49,2.006,0.49c2.67,0,4.02-2.1,4.02-4.35c0-2.219-1.561-4.379-4.02-4.379c-0.752,0-1.4,0.174-1.945,0.475
		C116.601,85.643,115.896,87.201,115.896,88.789z"/>
	<g>
		<g>
			<path fill="#8C8C8C" d="M133.895,81.381v7.738c0,2.25,1.229,3.961,3.569,3.961c2.25,0,3.78-1.891,3.78-4.141v-7.559h3.63v14.818
				h-3.27l-0.24-2.01c-1.529,1.5-2.939,2.221-5.01,2.221c-3.54,0-6.119-2.67-6.119-7.26v-7.77H133.895z"/>
		</g>
	</g>
	<g>
		<g>
			<path fill="#8C8C8C" d="M163.474,75.201V96.17h-3.42l-0.24-2.041c-1.139,1.771-2.969,2.371-4.77,2.371
				c-4.35,0-7.619-2.881-7.619-7.74c0-5.1,3.209-7.74,7.529-7.74c1.561,0,3.99,0.84,4.859,2.371v-8.189H163.474z M151.085,88.76
				c0,2.58,1.859,4.35,4.199,4.35c2.311,0,4.29-1.68,4.29-4.35c0-2.58-1.979-4.32-4.29-4.32
				C152.944,84.439,151.085,86.09,151.085,88.76z"/>
		</g>
	</g>
</g>
<g>
	<path fill="#8AB295" d="M127.854,112.541c-0.039,3.621-2.26,7.242-7.182,7.242c-4.92,0-7.201-3.541-7.201-7.221
		c0-3.682,2.361-7.383,7.201-7.383C125.494,105.18,127.895,108.881,127.854,112.541z M116.072,112.602
		c0.06,2.301,1.3,4.762,4.601,4.762c3.302,0,4.542-2.48,4.582-4.781c0.039-2.361-1.28-5.002-4.582-5.002
		C117.372,107.58,116.013,110.242,116.072,112.602z"/>
	<path fill="#8AB295" d="M129.611,123.584v-13.982h2.281l0.159,1.359c0.761-1.1,2.081-1.58,3.201-1.58
		c3.041,0,5.062,2.262,5.062,5.162c0,2.881-1.821,5.16-4.981,5.16c-1.04,0-2.581-0.32-3.281-1.4v5.281H129.611z M137.873,114.543
		c0-1.541-1.04-2.801-2.8-2.801c-1.761,0-2.801,1.26-2.801,2.801c0,1.539,1.14,2.801,2.801,2.801
		C136.733,117.344,137.873,116.082,137.873,114.543z"/>
	<path fill="#8AB295" d="M144.192,115.402c0.16,1.221,1.22,2.102,2.94,2.102c0.9,0,2.08-0.342,2.641-0.922l1.561,1.541
		c-1.041,1.08-2.741,1.6-4.241,1.6c-3.4,0-5.421-2.1-5.421-5.26c0-3.002,2.04-5.162,5.241-5.162c3.301,0,5.36,2.041,4.98,6.102
		H144.192z M149.554,113.383c-0.16-1.281-1.161-1.922-2.561-1.922c-1.32,0-2.401,0.641-2.761,1.922H149.554z"/>
	<path fill="#8AB295" d="M161.033,119.463v-5.16c0-1.5-0.82-2.641-2.38-2.641c-1.501,0-2.521,1.26-2.521,2.76v5.041h-2.421v-9.881
		h2.181l0.16,1.34c1-0.98,2-1.48,3.24-1.48c2.32,0,4.181,1.74,4.181,4.842v5.18H161.033z"/>
</g>
</svg>
